<?xml version="1.0" encoding="utf-8"?>
<!-- Generator: Adobe Illustrator 23.0.1, SVG Export Plug-In . SVG Version: 6.00 Build 0)  -->
<svg version="1.1" id="Layer_1" xmlns="http://www.w3.org/2000/svg" xmlns:xlink="http://www.w3.org/1999/xlink" x="0px" y="0px"
	 viewBox="0 0 595.3 841.9" enable-background="new 0 0 595.3 841.9" xml:space="preserve">
<g>
	<path fill="#231F20" d="M515.3,325.1c-1-3.5-1.7-7.2-2.3-10.8c-0.2-1.1-0.1-2.2,0.3-3.2c-0.6-3.9-1.1-7.9-1.8-11.8
		c-6.4-38.1-19.7-55.2-47.1-55.3c-110.2-0.5-220.4-0.5-330.6,0c-23.8,0.1-36.7,12.6-42.9,41c-6.2,28.5-10.8,57.4-22.1,83.7
		c2.6,1.9,5.3,3.3,8.4,3.2c149.8-2.1,299.6-0.3,449.4-1c0,0,0,0,0,0c-6.1-11.4-9.3-24.9-10-39.6
		C515.9,329.3,515.5,327.2,515.3,325.1z"/>
</g>
<path fill="none" d="M36,314.6"/>
</svg>
